<svg version="1.1" id="Layer_1" xmlns="http://www.w3.org/2000/svg" xmlns:xlink="http://www.w3.org/1999/xlink" x="0px" y="0px" viewBox="0 0 500 500" style="width: 166px;" xml:space="preserve" data-imageid="email-campaign-84" imageName="Email Campaign" class="illustrations_image">
<style type="text/css">
	.st0_email-campaign-84{fill:#D1D3D4;}
	.st1_email-campaign-84{fill:#231F20;}
	.st2_email-campaign-84{fill:#FFFFFF;}
	.st3_email-campaign-84{fill:#68E1FD;}
</style>
<g id="Envelope_Back_email-campaign-84">
	<polygon class="st0_email-campaign-84" points="90.3,221.8 241.4,126.3 392.6,221.8 392.6,361.1 90.3,361.1 &#9;"/>
	<path class="st1_email-campaign-84" d="M392.6,361.8H90.3c-0.4,0-0.7-0.3-0.7-0.7l0,0V221.8c0-0.2,0.1-0.5,0.3-0.6l151.1-95.5c0.2-0.1,0.5-0.1,0.8,0&#10;&#9;&#9;L393,221.2c0.2,0.1,0.3,0.4,0.3,0.6v139.3C393.3,361.5,393,361.8,392.6,361.8C392.6,361.8,392.6,361.8,392.6,361.8z M91,360.4&#10;&#9;&#9;h300.9V222.2l-150.4-95.1L91,222.2V360.4z"/>
</g>
<g id="Character_email-campaign-84">
	<path class="st2_email-campaign-84" d="M278.3,184.3c5-8.3,6.3-18.4,5.8-28.1c-0.5-10.6-3-21.1-8.2-30.3c-2.2-3.9-5-7.6-8.7-10&#10;&#9;&#9;c-4.5-2.9-7.6-0.9-12.1-1.7c-3.8-0.6-7.7-3.3-11.8-4c-9.6-1.6-19.5,0.5-27.6,5.8c-14.2,9.6-20.8,28.1-35.5,36.9&#10;&#9;&#9;c-14.4,8.7-32.8,6.1-49,10.9c-6.8,2-13.2,5.4-18.7,9.9c-3.8,2.9-6.9,6.7-9.2,10.9c-3.8,7.9-2.8,17.4-0.1,25.7&#10;&#9;&#9;c2.8,8.6,7.5,16.9,14.9,22.1c6.2,4.4,13.7,6.5,21.2,7.8c10.1,1.8,20.7,2.5,30.8,0.3c7.5-1.5,14.5-4.9,20.4-9.9&#10;&#9;&#9;c2.5-2.2,3.9-5.3,6.2-7.5c3.2-3,8.2-4.9,11.9-7.2c5.9-3.6,11.8-7.6,18.4-9.3C244,202.4,268,201.2,278.3,184.3L278.3,184.3z"/>
	<path class="st1_email-campaign-84" d="M156.7,242.7c-5.8,0-11.7-0.6-17.4-1.7c-6.5-1.2-14.7-3.1-21.4-7.9s-11.9-12.6-15.1-22.5&#10;&#9;&#9;c-2.3-7.1-4.1-17.3,0.1-26.2c2.2-4.4,5.4-8.2,9.3-11.1c5.6-4.5,12-7.9,18.9-10c6.4-1.9,13.3-2.7,19.9-3.4&#10;&#9;&#9;c10.4-1.1,20.3-2.2,28.9-7.4c7.5-4.5,13-11.8,18.3-18.8c5-6.6,10.2-13.5,17.2-18.2c8.2-5.5,18.3-7.6,28-5.9&#10;&#9;&#9;c2.2,0.5,4.4,1.2,6.4,2.1c1.7,0.8,3.6,1.5,5.4,1.9c1.4,0.2,2.9,0.2,4.3,0.1c2.4-0.1,5-0.3,8,1.7c3.3,2.1,6.3,5.5,9,10.2&#10;&#9;&#9;c4.9,8.7,7.7,19,8.2,30.6s-1.5,21.1-5.9,28.4l0,0c-8.4,13.8-25.6,17.3-40.8,20.4c-3.8,0.8-7.4,1.5-10.8,2.4c-6,1.6-11.5,5-16.8,8.3&#10;&#9;&#9;l-1.5,0.9c-1.3,0.8-2.8,1.6-4.3,2.3c-2.7,1.3-5.3,2.9-7.6,4.8c-1.1,1.1-2,2.2-2.8,3.5c-1,1.5-2.1,2.8-3.4,4&#10;&#9;&#9;c-5.9,5.1-13,8.6-20.6,10.1C165.8,242.2,161.2,242.7,156.7,242.7L156.7,242.7z M236.9,110.3c-7.4,0-14.7,2.1-20.8,6.2&#10;&#9;&#9;c-6.8,4.6-11.9,11.3-16.9,17.9c-5.4,7.1-10.9,14.4-18.6,19.1c-8.8,5.3-19.3,6.5-29.4,7.6c-6.6,0.7-13.4,1.5-19.7,3.4&#10;&#9;&#9;c-6.7,2-13,5.3-18.4,9.8c-3.8,2.9-6.8,6.5-9,10.7c-4.1,8.5-2.3,18.4,0,25.2c3.1,9.6,8.2,17.2,14.6,21.8s14.6,6.6,20.9,7.7&#10;&#9;&#9;c11.8,2.1,21.8,2.2,30.5,0.3c7.4-1.5,14.3-4.9,20.1-9.8c1.2-1.2,2.3-2.4,3.2-3.8c0.9-1.3,1.9-2.5,3-3.6c2.4-2,5-3.7,7.9-5&#10;&#9;&#9;c1.5-0.8,2.9-1.5,4.2-2.3l1.5-0.9c5.4-3.4,10.9-6.8,17.1-8.4c3.4-0.9,7-1.6,10.9-2.4c15-3.1,31.9-6.5,40-19.8l0.5,0.3l-0.5-0.3&#10;&#9;&#9;c4.4-7.2,6.3-16.5,5.8-27.7s-3.3-21.5-8.1-30c-2.6-4.6-5.4-7.8-8.5-9.8c-2.7-1.7-4.8-1.6-7.3-1.5c-1.5,0.1-3.1,0.1-4.6-0.1&#10;&#9;&#9;c-2-0.4-3.9-1.1-5.7-2c-1.9-0.9-4-1.6-6.1-2.1c-2.1-0.3-4.2-0.5-6.3-0.5L236.9,110.3z"/>
	<path class="st2_email-campaign-84" d="M335.4,170.6l-7.4,27.7l17.7,3.1l10.1-37c0,0-15.8-12.1-18.2-12.2S335.4,170.6,335.4,170.6L335.4,170.6z"/>
	<path class="st1_email-campaign-84" d="M345.7,202.1h-0.1l-17.7-3.1c-0.2,0-0.4-0.1-0.5-0.3c-0.1-0.2-0.1-0.4-0.1-0.6l7.3-27.6c0-3,0-16.6,2.1-18.6&#10;&#9;&#9;c0.2-0.2,0.6-0.4,0.9-0.4c2.5,0.1,15.9,10.3,18.6,12.3c0.2,0.2,0.3,0.5,0.2,0.7l-10.1,37C346.3,201.9,346,202.1,345.7,202.1&#10;&#9;&#9;L345.7,202.1z M328.9,197.8l16.3,2.9l9.8-36c-7.6-5.7-16.1-11.6-17.4-11.6c-1,0.7-1.6,9.8-1.5,17.6c0,0.1,0,0.1,0,0.2L328.9,197.8z&#10;&#9;&#9;"/>
	<path class="st2_email-campaign-84" d="M316.2,152.4c0,0,2.5,5.6,6.1,6.5s11.5-3,12.4-2.5s21.6,16,23.6,16.5s5.7-4.4,7.3-10.2&#10;&#9;&#9;c0,0-20.2-13.8-21.5-15.2s-2.9-10.2-4.8-13.4L316.2,152.4L316.2,152.4z"/>
	<path class="st1_email-campaign-84" d="M358.6,173.7c-0.1,0-0.3,0-0.4-0.1c-1.3-0.3-7.9-5-18.9-13c-2.5-1.8-4.6-3.4-4.9-3.5c-1,0.2-1.9,0.5-2.9,0.9&#10;&#9;&#9;c-2.9,1-6.9,2.3-9.4,1.6c-3.9-1-6.5-6.7-6.6-6.9c-0.1-0.3,0-0.6,0.2-0.8l23.1-18.3c0.2-0.1,0.4-0.2,0.6-0.1c0.2,0,0.4,0.1,0.5,0.3&#10;&#9;&#9;c1.1,1.7,2,5,2.8,7.8c0.7,2.3,1.4,4.9,1.9,5.4c0.9,1,13.3,9.6,21.4,15.1c0.2,0.2,0.4,0.5,0.3,0.8&#10;&#9;&#9;C364.9,168.1,361.3,173.7,358.6,173.7L358.6,173.7z M334.5,155.7c0.2,0,0.4,0,0.6,0.1c0.3,0.2,1.8,1.2,5,3.6&#10;&#9;&#9;c5.5,4,17,12.4,18.4,12.8s4.6-3.5,6.3-9.3c-3.4-2.3-19.9-13.6-21.2-15c-0.7-0.8-1.3-2.8-2.2-6c-0.6-2.3-1.4-4.6-2.3-6.8l-22,17.4&#10;&#9;&#9;c0.7,1.3,2.8,4.9,5.4,5.6c2,0.5,6-0.8,8.6-1.6C332.2,156.2,333.3,155.9,334.5,155.7L334.5,155.7z"/>
	<path class="st1_email-campaign-84" d="M338.3,139.4c-0.2,1.5,0.1,3,0.8,4.3c1.1,2,6.2,4.7,6.2,4.7l3.5-7l-6.9-5L338.3,139.4L338.3,139.4z"/>
	<path class="st1_email-campaign-84" d="M345.2,149.1c-0.1,0-0.2,0-0.3-0.1c-0.5-0.3-5.2-2.9-6.4-5c-0.8-1.5-1.1-3.1-0.9-4.7c0-0.2,0.1-0.3,0.2-0.4&#10;&#9;&#9;l3.6-3c0.3-0.2,0.6-0.2,0.9,0l6.9,5c0.3,0.2,0.4,0.6,0.2,0.9l-3.5,7.1c-0.1,0.2-0.2,0.3-0.4,0.4L345.2,149.1L345.2,149.1z&#10;&#9;&#9; M338.9,139.8c-0.1,1.2,0.2,2.5,0.7,3.6c0.7,1.3,3.6,3.2,5.2,4.1l2.9-5.9l-5.9-4.3L338.9,139.8z"/>
	<path class="st2_email-campaign-84" d="M360.2,159c0,0,1.8-5.8-1.4-6.2c0,0-0.6-4.1-4.5-2.4c0,0-1-4.3-4.4-3.4s-6.1,9-5.6,11s3.1,0.8,4.4-1.1&#10;&#9;&#9;c0,0-1.7,3.2-0.6,4c1.7,1.2,3.4-0.9,4.9-2.6c0,0-2.1,3.7,1,4.1c2.4,0.3,4.6-4.6,4.6-4.6L360.2,159L360.2,159z"/>
	<path class="st1_email-campaign-84" d="M354.2,163.2c-0.1,0-0.2,0-0.3,0c-0.9,0-1.6-0.5-2.1-1.2c-0.2-0.3-0.2-0.7-0.3-1.1c-1.2,1-2.5,1.7-3.9,0.6&#10;&#9;&#9;c-0.6-0.6-0.9-1.4-0.6-2.2c-0.6,0.4-1.3,0.5-2,0.4c-0.8-0.2-1.4-0.8-1.5-1.6c-0.5-2.4,2.3-10.8,6.1-11.8c1-0.3,2-0.1,2.9,0.4&#10;&#9;&#9;c1,0.7,1.8,1.7,2.1,2.8c0.9-0.3,2-0.3,2.8,0.2c0.9,0.6,1.6,1.5,1.8,2.5c0.6,0.2,1.1,0.6,1.5,1.1c1.2,2,0.2,5.5,0,5.9&#10;&#9;&#9;c-0.1,0.2-0.2,0.4-0.4,0.4c-0.2,0.1-0.4,0-0.6-0.1l-1-0.7C358.1,160.3,356.3,163.2,354.2,163.2L354.2,163.2z M353,157.7&#10;&#9;&#9;c0.1,0,0.3,0,0.4,0.1c0.3,0.2,0.4,0.6,0.2,0.9c-0.3,0.6-0.8,1.9-0.5,2.6c0,0.1,0.2,0.4,1,0.5c1.4,0.2,3.2-2.7,3.9-4.2&#10;&#9;&#9;c0.1-0.2,0.3-0.3,0.5-0.4c0.2-0.1,0.4,0,0.6,0.1l0.8,0.5c0.2-1.2,0.4-2.9-0.1-3.8c-0.2-0.3-0.6-0.6-1-0.6c-0.3,0-0.6-0.3-0.6-0.6&#10;&#9;&#9;c-0.1-0.8-0.6-1.5-1.2-2c-0.7-0.3-1.6-0.2-2.3,0.2c-0.2,0.1-0.4,0.1-0.6,0c-0.2-0.1-0.3-0.3-0.4-0.5c-0.3-1.1-0.9-2-1.8-2.7&#10;&#9;&#9;c-0.5-0.3-1.2-0.4-1.8-0.2c-3,0.8-5.5,8.4-5.1,10.2c0.1,0.4,0.3,0.5,0.4,0.5c0.6,0.1,2-0.6,2.8-1.9c0.2-0.3,0.7-0.4,1-0.2&#10;&#9;&#9;c0.3,0.2,0.4,0.6,0.2,0.9c-0.7,1.3-1.1,2.9-0.8,3.1c1,0.7,2.1-0.4,3.6-2.1l0.3-0.3C352.6,157.8,352.8,157.7,353,157.7L353,157.7z"/>
	<path class="st2_email-campaign-84" d="M345.2,141.7c0,0-1.9-3.3-3.9-0.4s-4.4,8.4-1.1,9S346.1,144.6,345.2,141.7L345.2,141.7z"/>
	<path class="st1_email-campaign-84" d="M340.7,151c-0.2,0-0.4,0-0.6-0.1c-0.9-0.1-1.7-0.7-2-1.5c-1-2.3,1.2-6.5,2.6-8.6c0.5-0.9,1.4-1.5,2.4-1.5&#10;&#9;&#9;c1.5,0.1,2.6,1.8,2.7,2c0,0,0,0.1,0.1,0.1c0.7,2.2-0.4,5.9-2.2,7.9C343,150.4,341.9,151,340.7,151L340.7,151z M343.1,140.8&#10;&#9;&#9;c-0.5,0-0.9,0.5-1.2,0.9c-1.7,2.4-3.1,5.8-2.5,7.2c0.2,0.4,0.5,0.6,1,0.7c0.9,0.1,1.8-0.4,2.4-1.1c1.5-1.6,2.4-4.8,1.9-6.5&#10;&#9;&#9;C344.4,141.6,343.8,140.8,343.1,140.8L343.1,140.8L343.1,140.8z"/>
	<path class="st2_email-campaign-84" d="M335.4,172.4c0,0-2.2-10.6-2.4-12.4c-0.4-3.2,0.4-8.2,3.2-9s9.2-1.5,8.2,1.3c-1,2.6-6.6,3.1-6.6,3.1&#10;&#9;&#9;s3.9,3.9,3.3,7.8"/>
	<path class="st1_email-campaign-84" d="M335.4,173.1c-0.3,0-0.6-0.2-0.7-0.6c-0.1-0.4-2.2-10.6-2.4-12.5c-0.4-3.3,0.3-8.8,3.7-9.7&#10;&#9;&#9;c1.8-0.5,7.2-1.5,8.8,0.2c0.5,0.5,0.6,1.3,0.3,2c-0.8,2.1-4,3-5.9,3.3c1.2,1.5,3.1,4.4,2.6,7.4c-0.1,0.4-0.4,0.6-0.8,0.6&#10;&#9;&#9;c-0.4-0.1-0.6-0.4-0.6-0.8c0.5-3.5-3.1-7.2-3.1-7.2c-0.3-0.3-0.3-0.7,0-1c0.1-0.1,0.3-0.2,0.4-0.2c1.5-0.1,5.4-0.8,6-2.6&#10;&#9;&#9;c0.1-0.4,0-0.5,0-0.6c-0.8-0.8-4.6-0.6-7.3,0.2c-2.3,0.6-3,5.2-2.7,8.2c0.2,1.8,2.4,12.3,2.4,12.4c0.1,0.4-0.2,0.7-0.5,0.8&#10;&#9;&#9;c0,0,0,0,0,0L335.4,173.1L335.4,173.1z"/>
	<path class="st2_email-campaign-84" d="M376.7,132.4c0,0-23.3-2.3-32.9,3.2c-2.4,1.4-4.7,3-6.9,4.8c-5.2,4-10,8.6-13.8,11.2c-7.5,5-14.8,6.1-19.7-1.9&#10;&#9;&#9;c-4.2-6.9-1.8-10.1,3.9-16.2c2.8-3,8.7-8,13.9-13.5c3-3.1,5.6-6.6,7.6-10.4c4.3-9.1,3.1-23,3.1-23L376.7,132.4L376.7,132.4z"/>
	<path class="st1_email-campaign-84" d="M312.7,156.1c-0.8,0-1.5-0.1-2.2-0.2c-3-0.6-5.5-2.6-7.6-5.9c-4.5-7.3-1.7-10.9,4-17c1.2-1.3,2.9-2.9,5-4.8&#10;&#9;&#9;c2.8-2.6,6-5.5,8.9-8.7c3-3,5.5-6.4,7.4-10.2c4.2-8.8,3-22.5,3-22.7c0-0.3,0.1-0.6,0.4-0.7c0.3-0.1,0.6-0.1,0.8,0.2l44.8,45.8&#10;&#9;&#9;c0.2,0.2,0.3,0.5,0.1,0.8c-0.1,0.3-0.4,0.4-0.7,0.4c-0.2,0-23.2-2.2-32.4,3.1c-2.4,1.4-4.6,3-6.8,4.7c-2.1,1.7-4.2,3.4-6.1,5.1&#10;&#9;&#9;c-2.5,2.2-5,4.2-7.7,6.1C319.6,154.8,315.9,156.1,312.7,156.1L312.7,156.1z M332.7,88.3c0.2,4.2,0.2,14.3-3.3,21.5&#10;&#9;&#9;c-2,3.9-4.6,7.4-7.7,10.5c-3,3.2-6.2,6.2-9,8.8c-2,1.9-3.7,3.5-4.9,4.7c-5.5,6-7.8,8.9-3.8,15.4c1.8,3,4.1,4.8,6.7,5.3&#10;&#9;&#9;c3.3,0.7,7.4-0.5,12-3.6c2.6-1.9,5.2-3.9,7.6-6c2-1.7,4-3.4,6.2-5.1c2.2-1.8,4.5-3.4,6.9-4.8c8.1-4.7,25.6-3.9,31.4-3.5L332.7,88.3&#10;&#9;&#9;L332.7,88.3z"/>
	<path class="st1_email-campaign-84" d="M338.3,139.4c-5.2,4-11.4,9.4-15,12.1c-8.3,6.2-13.6,6.9-19-0.8c-5.6-7.9-2.4-11.2,3.2-17.3&#10;&#9;&#9;c2.8-3,8.7-8,13.9-13.5c0,0,0.3,5.7,6,12.7C330.1,136,334,138.4,338.3,139.4L338.3,139.4z"/>
	<path class="st1_email-campaign-84" d="M312.7,157c-0.4,0-0.9,0-1.3-0.1c-2.8-0.4-5.3-2.3-7.8-5.8c-5.9-8.3-2.5-12,3.2-18.1c1.3-1.4,3-3,5-4.9&#10;&#9;&#9;c2.8-2.6,6-5.5,8.9-8.7c0.2-0.2,0.5-0.3,0.8-0.2c0.3,0.1,0.4,0.3,0.5,0.6c0,0.1,0.4,5.6,5.9,12.3c2.7,3.3,6.4,5.6,10.5,6.5&#10;&#9;&#9;c0.3,0,0.5,0.3,0.6,0.5c0.1,0.3,0,0.6-0.2,0.7c-2.4,1.9-5,4-7.5,6.1c-2.9,2.4-5.6,4.6-7.6,6.1C319.1,155.4,315.6,157.1,312.7,157&#10;&#9;&#9;L312.7,157z M320.8,121.4c-2.7,2.8-5.5,5.4-8,7.7c-2,1.9-3.7,3.5-4.9,4.7c-5.6,6-8.4,9-3.2,16.4c2.3,3.2,4.4,4.9,6.8,5.2&#10;&#9;&#9;c2.9,0.4,6.3-1,11.2-4.6c1.9-1.4,4.7-3.7,7.5-6c2.1-1.7,4.3-3.5,6.4-5.2c-3.9-1.2-7.4-3.5-9.9-6.7&#10;&#9;&#9;C323.9,129.7,321.8,125.8,320.8,121.4L320.8,121.4z"/>
	<path class="st3_email-campaign-84 targetColor" d="M383.2,130.4c-5.2,4.7-16.8,0.8-28.1-8.7c-5.7-4.9-10.8-10.5-15-16.7c-8.3-12.3-11-24.3-5.8-29&#10;&#9;&#9;c6.5-5.8,22.7,1.6,36.2,16.6S389.7,124.5,383.2,130.4z" style="fill: rgb(231, 157, 206);"/>
	<path class="st1_email-campaign-84" d="M340.3,74c7.9,0,19.9,7.1,30.3,18.6c13.5,15,19.1,32,12.6,37.8c-1.6,1.4-3.8,2.1-5.9,2&#10;&#9;&#9;c-5.9,0-14.1-3.9-22.2-10.7c-5.7-4.9-10.8-10.5-15-16.7c-8.3-12.3-11-24.3-5.8-29C336,74.6,338.1,73.9,340.3,74 M340.3,72.6&#10;&#9;&#9;L340.3,72.6c-2.5-0.1-4.9,0.7-6.9,2.3c-5.7,5-3.4,17.4,5.6,30.8c4.3,6.3,9.4,12,15.3,17c8.4,7,16.8,11.1,23.1,11.1&#10;&#9;&#9;c2.5,0.1,4.9-0.7,6.9-2.4c3.6-3.2,4.1-9.2,1.6-16.9c-2.4-7.3-7.5-15.4-14.1-22.8C361.2,80,348.9,72.6,340.3,72.6L340.3,72.6z"/>
	<path class="st2_email-campaign-84" d="M364.4,110l-9.3,11.7c-5.7-4.9-10.8-10.5-15-16.7l13.5-8.3L364.4,110z"/>
	<ellipse transform="matrix(0.7727 -0.6347 0.6347 0.7727 15.9698 251.353)" class="st1_email-campaign-84" cx="359" cy="103.4" rx="4" ry="8.6"/>
	<path class="st1_email-campaign-84" d="M363,111.1c-2.2,0-5.2-1.8-7.6-4.8c-1.4-1.7-2.5-3.6-3.1-5.7c-0.5-2-0.2-3.6,0.8-4.4s2.6-0.8,4.5,0.1&#10;&#9;&#9;c1.9,1,3.6,2.4,5,4.1l0,0c3.3,4,4.3,8.5,2.3,10.1C364.4,110.9,363.7,111.1,363,111.1L363,111.1z M355,97c-0.4,0-0.7,0.1-1,0.3&#10;&#9;&#9;c-0.6,0.5-0.7,1.6-0.4,3c0.6,1.9,1.5,3.7,2.8,5.2c2.9,3.6,6.3,5,7.5,4s0.5-4.6-2.5-8.2c-1.2-1.6-2.8-2.9-4.5-3.8&#10;&#9;&#9;C356.4,97.2,355.7,97,355,97L355,97z"/>
	<path class="st1_email-campaign-84" d="M353,159.1c-0.1,0-0.3,0-0.4-0.1c-0.3-0.2-0.5-0.6-0.3-1c0,0,0,0,0,0c0.9-1.4,1.9-2.7,3.1-3.8&#10;&#9;&#9;c0.3-0.3,0.7-0.2,1,0.1c0.3,0.3,0.2,0.7-0.1,1l0,0c-1.1,1-2,2.2-2.8,3.5C353.5,158.9,353.2,159.1,353,159.1L353,159.1z"/>
	<path class="st1_email-campaign-84" d="M348.7,157.6h-0.1c-0.4-0.1-0.6-0.4-0.5-0.8c0.5-2,1.7-3.8,3.3-5c0.3-0.2,0.7-0.2,1,0.1c0.2,0.3,0.2,0.7-0.1,1&#10;&#9;&#9;c-1.4,1-2.4,2.5-2.8,4.1C349.3,157.4,349,157.6,348.7,157.6L348.7,157.6z"/>
	<path class="st1_email-campaign-84" d="M358.6,158.6c-0.1,0-0.3,0-0.4-0.1c-0.3-0.2-0.4-0.7-0.2-1c0,0,0,0,0,0l1-1.4c0.2-0.3,0.7-0.4,1-0.2&#10;&#9;&#9;c0.3,0.2,0.4,0.7,0.2,1l0,0l-1,1.4C359,158.5,358.8,158.6,358.6,158.6L358.6,158.6z"/>
	<path class="st2_email-campaign-84" d="M314.4,155.6c-0.2,0-0.3,0-0.4-0.1c-6.2-4.7-10-10.4-10.8-16.1v-0.2c-0.1-0.3,0-0.6,0.3-0.8&#10;&#9;&#9;c0.3-0.2,0.8-0.1,1,0.2c0,0,0,0,0,0c0.1,0.2,0.1,0.4,0.1,0.5c0.7,5.3,4.4,10.7,10.2,15.1c0.3,0.2,0.4,0.7,0.2,1c0,0,0,0,0,0&#10;&#9;&#9;C314.9,155.5,314.7,155.6,314.4,155.6L314.4,155.6z"/>
	<path class="st2_email-campaign-84" d="M311,133.2c-0.2,0-0.4-0.1-0.5-0.2c-0.3-0.3-0.3-0.7,0-1l7.5-6.9c0.3-0.3,0.7-0.3,1,0c0,0,0,0,0,0&#10;&#9;&#9;c0.3,0.3,0.3,0.7,0,1l-7.5,6.9C311.4,133.1,311.2,133.2,311,133.2L311,133.2z"/>
	<path class="st2_email-campaign-84" d="M312,134.9c-0.2,0-0.4-0.1-0.5-0.2c-0.3-0.3-0.3-0.7,0-1l7.5-6.9c0.3-0.3,0.7-0.3,1,0c0,0,0,0,0,0&#10;&#9;&#9;c0.3,0.3,0.3,0.7,0,1l-7.5,6.9C312.4,134.8,312.2,134.9,312,134.9L312,134.9z"/>
	<path class="st2_email-campaign-84" d="M313.2,136.9c-0.2,0-0.4-0.1-0.5-0.2c-0.3-0.3-0.3-0.7,0-1l7.5-6.9c0.3-0.3,0.7-0.3,1,0c0,0,0,0,0,0&#10;&#9;&#9;c0.3,0.3,0.3,0.7,0,1l-7.5,6.9C313.5,136.7,313.4,136.8,313.2,136.9L313.2,136.9z"/>
	<path class="st3_email-campaign-84 targetColor" d="M188.6,244.9l-3.5,77.6c0,0,48,0.6,75.5-10.9c0,0,4.1-13.5,8.2-21.7s21.4-20.2,16-51.5c0,0,40.9,25.9,52.5,14&#10;&#9;&#9;s17.3-67.5,17.3-67.5l-24-7.7l-10.9,34.3c0,0-69.1-33.4-85.2-37.7c-6-1.6-24.6,8.3-45.9,22" style="fill: rgb(231, 157, 206);"/>
	<path class="st1_email-campaign-84" d="M233,197c0,0,11.1,34.5,13,49.1c1.9,14.6,2.2,38.8,2.2,38.8s17.6-53.8,15.4-87.1L233,197z"/>
	<path class="st1_email-campaign-84" d="M248.2,285.4L248.2,285.4c-0.4,0-0.6-0.3-0.6-0.6c0-0.2-0.3-24.3-2.2-38.7s-12.9-48.6-13-49&#10;&#9;&#9;c-0.1-0.2,0-0.4,0.1-0.6c0.1-0.2,0.3-0.2,0.5-0.2l30.6,0.8c0.3,0,0.6,0.3,0.6,0.6c2.2,33-15.2,86.8-15.4,87.3&#10;&#9;&#9;C248.7,285.3,248.4,285.5,248.2,285.4L248.2,285.4z M233.8,197.6c1.7,5.4,11,35.1,12.8,48.4c1.4,11,2,27.6,2.1,35&#10;&#9;&#9;c3.8-12.6,15.9-54.8,14.3-82.6L233.8,197.6z"/>
	<path class="st1_email-campaign-84" d="M177.1,363.6h132.3l-48.7-52.1l-75.5,10.9c0,0-9.1,20.5-8.2,34.8C177,359,177,361.1,177.1,363.6L177.1,363.6z"/>
	<path class="st1_email-campaign-84" d="M309.3,364.3H177.1c-0.4,0-0.7-0.3-0.7-0.7c0-2.4-0.1-4.6-0.2-6.3c-0.9-14.4,7.9-34.3,8.2-35.2&#10;&#9;&#9;c0.1-0.2,0.3-0.4,0.5-0.4l75.5-10.9c0.2,0,0.5,0,0.6,0.2l48.7,52.1c0.2,0.2,0.2,0.5,0.1,0.8C309.9,364.2,309.6,364.3,309.3,364.3&#10;&#9;&#9;L309.3,364.3z M177.7,362.9h130l-47.4-50.7l-74.8,10.8c-1.2,2.8-8.8,21.1-8,34.2C177.7,358.8,177.7,360.8,177.7,362.9L177.7,362.9z&#10;&#9;&#9;"/>
	<path class="st2_email-campaign-84" d="M259.8,178.4l3.8,19.3c0,0,0.1,11.2-12.3,10.1c-7.4-0.7-14.1-4.7-18.3-10.9l-5-33.8c-0.2-1.4,1.1-6.1-1.5-18.3&#10;&#9;&#9;c14.2-3,23.5-15.9,23.5-15.9s6.3,6.4,8.9,8.4c2,1.4,3.9,3.1,5.5,5c2.7,3.4,3.5,8,4.2,12.1c0.9,4.9,1.3,9.9,1.3,14.9&#10;&#9;&#9;C269.8,178.9,259.8,178.4,259.8,178.4L259.8,178.4z"/>
	<path class="st1_email-campaign-84" d="M252.9,208.6c-0.5,0-1.1,0-1.7-0.1c-7.6-0.7-14.5-4.8-18.8-11.2c0-0.1-0.1-0.1-0.1-0.2l-5-33.8&#10;&#9;&#9;c-0.1-0.6-0.1-1.1,0-1.7c0.1-2.4,0.5-7.3-1.5-16.6c-0.1-0.3,0.1-0.7,0.5-0.8c0,0,0,0,0,0c13.8-2.9,23-15.5,23.1-15.6&#10;&#9;&#9;c0.1-0.2,0.3-0.3,0.5-0.3c0.2,0,0.4,0.1,0.5,0.2c0.1,0.1,6.3,6.4,8.8,8.3c2.1,1.5,4,3.2,5.6,5.1c2.8,3.5,3.7,8.5,4.3,12.4&#10;&#9;&#9;c0.9,4.9,1.3,10,1.3,15c0.1,2.6-0.9,5.1-2.8,6.9c-2,1.7-4.6,2.7-7.2,2.8l3.6,18.6c0,3.1-1.2,6-3.4,8.2&#10;&#9;&#9;C258.6,207.8,255.8,208.8,252.9,208.6L252.9,208.6z M233.6,196.8c4.1,5.9,10.6,9.8,17.7,10.5c3.7,0.3,6.6-0.5,8.6-2.3&#10;&#9;&#9;c1.9-1.9,2.9-4.5,3-7.2l-3.8-19.2c0-0.2,0-0.4,0.1-0.5c0.1-0.2,0.3-0.2,0.5-0.2c0,0,4.4,0.1,7.1-2.4c1.6-1.6,2.4-3.8,2.3-6&#10;&#9;&#9;c0-4.9-0.4-9.9-1.3-14.7c-0.7-4-1.4-8.6-4.1-11.9c-1.6-1.8-3.4-3.5-5.4-4.9c-2.2-1.6-6.9-6.3-8.4-7.9c-2,2.6-10.4,12.6-22.8,15.4&#10;&#9;&#9;c1.9,9.1,1.5,14,1.4,16.3c0,0.5,0,1,0,1.4l0,0C228.6,163.1,228.6,163.4,233.6,196.8L233.6,196.8z"/>
	<path class="st1_email-campaign-84" d="M261.5,188c0,0-7.8,1.8-13.8-2.4s-6.3-9.7-6.3-9.7s9.6,4.1,18.4,2.6L261.5,188z"/>
	<path class="st1_email-campaign-84" d="M257.4,189c-3.6,0.1-7.1-1-10.1-3c-6.2-4.4-6.6-9.9-6.6-10.2c0-0.2,0.1-0.4,0.3-0.5c0.2-0.1,0.4-0.1,0.6-0.1&#10;&#9;&#9;c0.1,0,9.5,4,18.1,2.6c0.3-0.1,0.6,0.2,0.7,0.5l1.7,9.5c0.1,0.3-0.1,0.6-0.5,0.7C260.2,188.8,258.8,189,257.4,189L257.4,189z&#10;&#9;&#9; M242.1,176.8c0.9,3.4,3,6.3,5.9,8.2c4.8,3.4,10.9,2.8,12.8,2.4l-1.5-8.3C252.1,180.1,244.8,177.8,242.1,176.8L242.1,176.8z"/>
	<path class="st2_email-campaign-84" d="M249.4,145.5c0,0,8,8.1,6.8,10s-5.5,1.6-5.5,1.6"/>
	<path class="st1_email-campaign-84" d="M251.4,157.7c-0.4,0-0.6,0-0.7,0c-0.3,0-0.6-0.3-0.6-0.7s0.3-0.6,0.7-0.6l0,0c1.1,0.1,4.1,0,4.9-1.3&#10;&#9;&#9;c0.5-0.8-2.7-5.1-6.7-9.2c-0.2-0.2-0.2-0.6,0-0.9s0.6-0.2,0.9,0c2.5,2.5,8.2,8.7,6.9,10.8C255.7,157.5,252.8,157.7,251.4,157.7&#10;&#9;&#9;L251.4,157.7z"/>
	<ellipse transform="matrix(0.9743 -0.2251 0.2251 0.9743 -26.6168 62.3356)" class="st1_email-campaign-84" cx="260" cy="147.9" rx="1.1" ry="2"/>
	<ellipse transform="matrix(0.9743 -0.2251 0.2251 0.9743 -27.4834 58.37)" class="st1_email-campaign-84" cx="242.2" cy="149.7" rx="1.1" ry="2"/>
	<path class="st2_email-campaign-84" d="M232.5,152.1c-1.9-3.1-6.5-3.6-9.7-2.3c-2.1,0.8-3.6,2.8-3.7,5.1c0,1.4,0.2,2.7,0.7,4c0.9,2.4,2.1,4.6,3.8,6.6&#10;&#9;&#9;c0.8,1,1.8,1.8,2.9,2.4c1.5,0.6,3.2,0.1,4.2-1.1"/>
	<path class="st1_email-campaign-84" d="M227.9,168.6c-0.5,0-1.1-0.1-1.6-0.3c-1.3-0.6-2.4-1.4-3.2-2.5c-1.7-2-3-4.3-3.9-6.8c-0.5-1.4-0.8-2.8-0.8-4.3&#10;&#9;&#9;c0.1-2.5,1.7-4.8,4.1-5.6c3.5-1.4,8.4-0.8,10.4,2.6c0.2,0.3,0.1,0.7-0.2,0.9c-0.3,0.2-0.7,0.1-0.9-0.2c-1.7-2.8-5.9-3.3-8.9-2.1&#10;&#9;&#9;c-1.9,0.7-3.2,2.5-3.3,4.5c0,1.3,0.2,2.6,0.7,3.8c0.8,2.3,2.1,4.5,3.6,6.4c0.7,0.9,1.6,1.7,2.7,2.2c1.3,0.4,2.7,0.1,3.6-0.9&#10;&#9;&#9;c0.3-0.2,0.7-0.2,0.9,0.1c0.2,0.2,0.2,0.6,0,0.8C230.4,168.1,229.2,168.6,227.9,168.6L227.9,168.6z"/>
	<path class="st2_email-campaign-84" d="M257.3,159.6l-9.4,0.9c0,0,1.9,14.5,6.2,14.1C258.3,174.2,258.3,163.8,257.3,159.6z"/>
	<path class="st1_email-campaign-84" d="M253.9,175.2c-4.4,0-6.3-12.1-6.6-14.6c0-0.2,0-0.3,0.1-0.5c0.1-0.1,0.3-0.2,0.4-0.2l9.4-0.9&#10;&#9;&#9;c0.3,0,0.6,0.2,0.7,0.5c0.8,3.2,1.1,10.9-1.3,14.2c-0.5,0.9-1.5,1.4-2.5,1.6L253.9,175.2z M248.6,161.1c0.8,5.3,2.8,12.9,5.3,12.9&#10;&#9;&#9;h0.1c0.7-0.1,1.3-0.5,1.6-1.1c1.8-2.6,1.9-9.1,1.2-12.7L248.6,161.1z"/>
	<path class="st1_email-campaign-84" d="M280.7,271.9c-0.1,0-0.2,0-0.3-0.1c-0.3-0.2-0.4-0.6-0.2-0.9c0.1-0.2,10.4-17.5,0.5-53.5&#10;&#9;&#9;c-0.1-0.3,0.1-0.7,0.5-0.8c0.3-0.1,0.7,0.1,0.8,0.4c0,0,0,0,0,0c10,36.6-0.3,53.8-0.7,54.5C281.1,271.8,280.9,271.9,280.7,271.9&#10;&#9;&#9;L280.7,271.9z"/>
</g>
<g id="Envelope_Front_email-campaign-84">
	<polygon class="st2_email-campaign-84" points="90.3,221.8 241.4,330.8 392.6,221.8 392.6,400.7 90.3,400.7 &#9;"/>
	<path class="st1_email-campaign-84" d="M392.6,401.4H90.3c-0.4,0-0.7-0.3-0.7-0.7l0,0V221.8c0-0.3,0.1-0.5,0.4-0.6c0.2-0.1,0.5-0.1,0.7,0.1L241.4,330&#10;&#9;&#9;l150.7-108.8c0.2-0.1,0.5-0.2,0.7-0.1c0.2,0.1,0.4,0.4,0.4,0.6v178.9C393.3,401.1,393,401.4,392.6,401.4L392.6,401.4L392.6,401.4z&#10;&#9;&#9; M91,400h300.9V223.1l-150,108.2c-0.2,0.2-0.6,0.2-0.8,0L91,223.1V400z"/>
	<path class="st1_email-campaign-84" d="M90.3,401.4c-0.3,0-0.5-0.1-0.6-0.4c-0.2-0.3-0.1-0.8,0.2-0.9c0,0,0,0,0,0L228.2,321c0.4-0.2,0.8,0,0.9,0.4&#10;&#9;&#9;c0.1,0.3,0,0.7-0.2,0.9L90.7,401.3C90.5,401.3,90.4,401.4,90.3,401.4L90.3,401.4z"/>
	<path class="st1_email-campaign-84" d="M392.6,401.4c-0.1,0-0.2,0-0.4-0.1L254,322.2c-0.3-0.2-0.5-0.6-0.3-0.9c0,0,0,0,0,0c0.2-0.3,0.6-0.4,0.9-0.3&#10;&#9;&#9;L393,400.1c0.3,0.2,0.4,0.6,0.2,1C393.1,401.2,392.9,401.4,392.6,401.4L392.6,401.4z"/>
</g>
<g id="Right_Hand_email-campaign-84">
	<path class="st2_email-campaign-84" d="M162.4,318.6c0,0,6.1,15.9,7.6,16.9s18.5,7.8,17.3,11.1s-8.9-0.7-8.9-0.7s11.1,12.8,8.1,15s-12.7,6.8-16.6,5&#10;&#9;&#9;s-23.5-26.2-27.7-36.7"/>
	<path class="st1_email-campaign-84" d="M172.2,367c-0.9,0-1.8-0.1-2.7-0.5c-4.2-2-23.9-26.6-28.1-37.1c-0.1-0.4,0-0.8,0.4-0.9c0.4-0.1,0.8,0,0.9,0.4&#10;&#9;&#9;c4.2,10.8,23.9,34.7,27.4,36.3s13-2.6,15.9-4.9c0.1-0.1,0.2-0.3,0.2-0.5c0.3-2.8-6-10.7-8.4-13.6c-0.3-0.3-0.3-0.7,0-1&#10;&#9;&#9;c0.2-0.2,0.6-0.3,0.8-0.1c1.4,0.7,5.4,2.5,7.2,1.8c0.3-0.1,0.6-0.4,0.7-0.7c0.3-0.9-1.9-3.2-14.4-9c-1.5-0.7-2.3-1.1-2.6-1.3&#10;&#9;&#9;c-1.5-1-6.4-13.4-7.8-17.2c-0.1-0.4,0-0.8,0.4-0.9s0.8,0,0.9,0.4c2.9,7.6,6.4,15.8,7.3,16.5c0.2,0.1,1.3,0.6,2.5,1.2&#10;&#9;&#9;c10,4.6,16.1,8.1,15.1,10.7c-0.3,0.7-0.8,1.3-1.5,1.5c-1.5,0.6-3.8,0-5.6-0.6c2.7,3.4,7.2,9.4,6.9,12.3c0,0.6-0.3,1.1-0.7,1.4&#10;&#9;&#9;C184.6,363.2,177.2,367,172.2,367L172.2,367z"/>
	<path class="st3_email-campaign-84 targetColor" d="M188.6,195.7c-36,23.1-79.8,57.2-83.5,65.1c-5.9,12.6,38.3,76,38.3,76l23.9-15.2l-21.9-47.4l43.1-29.3" style="fill: rgb(231, 157, 206);"/>
	<path class="st1_email-campaign-84" d="M160.9,264.3c-0.4,0-0.6-0.3-0.6-0.7c0-0.2,0.1-0.4,0.3-0.5l48.5-33.9c0.3-0.2,0.7-0.2,0.9,0.1&#10;&#9;&#9;s0.2,0.7-0.1,0.9c0,0,0,0,0,0l-48.4,33.9C161.2,264.3,161.1,264.3,160.9,264.3L160.9,264.3z"/>
</g>
<g id="Paper_Plane_email-campaign-84">
	<polygon class="st1_email-campaign-84" points="371.3,360.4 430,324.5 380.3,345.2 &#9;"/>
	<path class="st1_email-campaign-84" d="M371.3,361.1c-0.2,0-0.4-0.1-0.5-0.2c-0.2-0.2-0.3-0.6-0.1-0.9l9-15.2c0.1-0.1,0.2-0.2,0.3-0.3l49.7-20.7&#10;&#9;&#9;c0.3-0.1,0.7,0,0.9,0.3c0.2,0.3,0.1,0.7-0.3,0.9L371.7,361C371.6,361.1,371.4,361.1,371.3,361.1L371.3,361.1z M380.8,345.8&#10;&#9;&#9;l-7.4,12.6l48.6-29.7L380.8,345.8L380.8,345.8z"/>
	<polygon class="st2_email-campaign-84" points="380.3,345.2 399.5,355 430,324.5 &#9;"/>
	<path class="st1_email-campaign-84" d="M399.5,355.7c-0.1,0-0.2,0-0.3-0.1l-19.2-9.8c-0.2-0.1-0.4-0.3-0.4-0.6c0-0.2,0.2-0.5,0.4-0.6l49.7-20.7&#10;&#9;&#9;c0.3-0.1,0.7,0,0.8,0.3c0.1,0.2,0.1,0.5-0.1,0.7l-30.5,30.5C399.8,355.6,399.6,355.7,399.5,355.7L399.5,355.7z M381.8,345.3l17.5,9&#10;&#9;&#9;l27.9-27.9L381.8,345.3z"/>
	<polygon class="st2_email-campaign-84" points="430,324.5 366.8,339.6 352.5,331.4 &#9;"/>
	<path class="st1_email-campaign-84" d="M366.8,340.2c-0.1,0-0.2,0-0.3-0.1l-14.4-8.2c-0.2-0.1-0.4-0.4-0.3-0.7c0.1-0.3,0.3-0.5,0.6-0.5l77.5-6.9&#10;&#9;&#9;c0.3,0,0.6,0.2,0.7,0.5c0.1,0.3-0.2,0.6-0.5,0.7L367,340.2L366.8,340.2L366.8,340.2z M354.5,331.8l12.4,7.1l54.4-13L354.5,331.8z"/>
	<polygon class="st2_email-campaign-84" points="366.8,339.6 371.3,360.4 380.3,345.2 430,324.5 &#9;"/>
	<path class="st1_email-campaign-84" d="M371.3,361h-0.1c-0.3,0-0.5-0.2-0.5-0.5l-4.5-20.8c-0.1-0.3,0.1-0.7,0.5-0.8l63.2-15.1&#10;&#9;&#9;c0.3-0.1,0.7,0.1,0.8,0.4c0.1,0.3-0.1,0.7-0.4,0.8l-49.5,20.6l-8.9,15C371.8,360.9,371.6,361,371.3,361L371.3,361z M367.6,340&#10;&#9;&#9;l4,18.6l8.1-13.8c0.1-0.1,0.2-0.2,0.3-0.3l42.4-17.6L367.6,340L367.6,340z"/>
</g>
<g id="Dashed_Line_email-campaign-84">
	<path class="st0_email-campaign-84" d="M358.4,363.3c-0.2,0-0.5-0.1-0.6-0.3c-0.2-0.3-0.1-0.7,0.2-1c0,0,0,0,0.1,0c1.5-1,2.3-1.5,2.3-1.5&#10;&#9;&#9;c0.3-0.2,0.8-0.2,1,0.2c0,0,0,0,0,0c0.2,0.3,0.1,0.8-0.2,1c0,0,0,0,0,0c0,0-0.8,0.5-2.4,1.5C358.7,363.3,358.5,363.3,358.4,363.3&#10;&#9;&#9;L358.4,363.3z"/>
	<path class="st0_email-campaign-84" d="M146.4,427.5c-0.4,0-0.7-0.3-0.7-0.7c0-0.4,0.3-0.7,0.7-0.7l3.3-0.1l2.2-0.1c0.4,0,0.7,0.3,0.7,0.7&#10;&#9;&#9;c0,0.4-0.3,0.7-0.7,0.7c0,0,0,0,0,0l-2.3,0.1L146.4,427.5L146.4,427.5z M140.9,427.5L140.9,427.5c-1.9,0-3.8,0-5.6-0.1&#10;&#9;&#9;c-0.4,0-0.7-0.3-0.7-0.7c0-0.4,0.3-0.7,0.7-0.7c1.8,0.1,3.7,0.1,5.6,0.1c0.4,0,0.7,0.3,0.7,0.7c0,0,0,0,0,0&#10;&#9;&#9;C141.6,427.1,141.2,427.5,140.9,427.5L140.9,427.5z M157.6,427.1c-0.4,0-0.7-0.3-0.7-0.7c0-0.4,0.3-0.7,0.6-0.7c0,0,0,0,0,0&#10;&#9;&#9;c1.9-0.1,3.7-0.2,5.6-0.3c0.4,0,0.7,0.3,0.7,0.6c0,0,0,0,0,0c0,0.4-0.3,0.7-0.6,0.7c0,0,0,0,0,0C161.4,426.9,159.5,427,157.6,427.1&#10;&#9;&#9;L157.6,427.1L157.6,427.1z M129.7,427L129.7,427c-2-0.1-3.8-0.3-5.6-0.5c-0.4,0-0.7-0.4-0.6-0.8c0-0.4,0.4-0.7,0.7-0.6c0,0,0,0,0,0&#10;&#9;&#9;c1.8,0.2,3.7,0.4,5.6,0.5c0.4,0,0.7,0.3,0.7,0.7C130.4,426.7,130.1,427,129.7,427L129.7,427z M168.8,426.4c-0.4,0-0.7-0.3-0.7-0.6&#10;&#9;&#9;c0-0.4,0.3-0.7,0.6-0.8c1.9-0.1,3.7-0.3,5.6-0.5c0.4,0,0.7,0.2,0.8,0.6c0,0.4-0.2,0.7-0.6,0.8c0,0,0,0,0,0&#10;&#9;&#9;C172.6,426,170.7,426.2,168.8,426.4L168.8,426.4L168.8,426.4z M118.6,425.8L118.6,425.8c-2-0.3-3.8-0.6-5.6-0.9&#10;&#9;&#9;c-0.4-0.1-0.6-0.4-0.6-0.8c0.1-0.4,0.4-0.6,0.8-0.6c1.8,0.3,3.6,0.6,5.5,0.9c0.4,0.1,0.6,0.4,0.6,0.8&#10;&#9;&#9;C119.2,425.5,118.9,425.8,118.6,425.8L118.6,425.8z M179.9,425.3c-0.4,0-0.7-0.3-0.7-0.6c0-0.4,0.2-0.7,0.6-0.8&#10;&#9;&#9;c1.9-0.2,3.7-0.4,5.6-0.7c0.4,0,0.7,0.2,0.8,0.6c0,0.4-0.2,0.7-0.6,0.8C183.7,424.9,181.9,425.1,179.9,425.3L179.9,425.3&#10;&#9;&#9;L179.9,425.3z M191,423.9c-0.4,0-0.7-0.3-0.7-0.7c0-0.3,0.3-0.6,0.6-0.7c1.9-0.3,3.7-0.5,5.5-0.8c0.4,0,0.7,0.2,0.8,0.6&#10;&#9;&#9;c0,0.4-0.2,0.7-0.5,0.8c-1.8,0.3-3.7,0.6-5.5,0.8L191,423.9L191,423.9z M107.6,423.7c-0.1,0-0.1,0-0.2,0c-1.9-0.4-3.7-0.9-5.4-1.4&#10;&#9;&#9;c-0.4-0.1-0.6-0.5-0.5-0.9c0.1-0.4,0.5-0.6,0.9-0.5l0,0c1.7,0.5,3.5,1,5.4,1.4c0.4,0.1,0.6,0.5,0.5,0.8c0,0,0,0,0,0&#10;&#9;&#9;C108.2,423.5,107.9,423.7,107.6,423.7L107.6,423.7z M202.1,422.1c-0.4,0-0.7-0.3-0.7-0.7c0-0.3,0.2-0.6,0.6-0.7l5.5-1&#10;&#9;&#9;c0.4-0.1,0.7,0.2,0.8,0.6c0,0,0,0,0,0c0.1,0.4-0.2,0.7-0.6,0.8c0,0,0,0,0,0c-1.8,0.3-3.7,0.7-5.5,1L202.1,422.1z M96.8,420.6&#10;&#9;&#9;c-0.1,0-0.2,0-0.2,0c-1.8-0.6-3.6-1.3-5.2-2c-0.4-0.2-0.5-0.6-0.4-0.9s0.6-0.5,0.9-0.4c1.7,0.7,3.4,1.4,5.2,2&#10;&#9;&#9;c0.4,0.1,0.6,0.5,0.4,0.9C97.4,420.5,97.1,420.7,96.8,420.6L96.8,420.6z M213.1,420c-0.3,0-0.6-0.2-0.7-0.6&#10;&#9;&#9;c-0.1-0.4,0.2-0.7,0.5-0.8c0,0,0,0,0,0c1.8-0.4,3.7-0.8,5.5-1.1c0.4-0.1,0.7,0.2,0.8,0.5c0.1,0.4-0.2,0.7-0.5,0.8&#10;&#9;&#9;c-1.8,0.4-3.6,0.8-5.5,1.1L213.1,420L213.1,420z M224,417.7c-0.4,0-0.7-0.3-0.7-0.7c0-0.3,0.2-0.6,0.5-0.7l5.4-1.3&#10;&#9;&#9;c0.4-0.1,0.8,0.1,0.8,0.5s-0.1,0.8-0.5,0.8l0,0c-1.8,0.4-3.6,0.9-5.4,1.3H224L224,417.7z M86.6,416.2c-0.1,0-0.2,0-0.3-0.1&#10;&#9;&#9;c-1.7-0.9-3.4-1.8-4.9-2.8c-0.3-0.2-0.5-0.6-0.3-0.9c0.2-0.3,0.6-0.5,0.9-0.3c0,0,0.1,0,0.1,0.1c1.5,0.9,3.2,1.9,4.8,2.7&#10;&#9;&#9;c0.3,0.2,0.5,0.6,0.3,0.9C87,416,86.8,416.2,86.6,416.2L86.6,416.2z M234.9,415.1c-0.3,0-0.6-0.2-0.7-0.5c-0.1-0.4,0.1-0.8,0.5-0.9&#10;&#9;&#9;c1.8-0.5,3.6-0.9,5.4-1.4c0.4-0.1,0.8,0.1,0.9,0.5c0.1,0.4-0.1,0.8-0.5,0.9c0,0,0,0,0,0c-1.8,0.5-3.6,1-5.4,1.4&#10;&#9;&#9;C235,415,234.9,415,234.9,415.1L234.9,415.1z M245.7,412.1c-0.3,0-0.6-0.2-0.7-0.5c-0.1-0.4,0.1-0.8,0.5-0.9c1.8-0.5,3.6-1,5.4-1.6&#10;&#9;&#9;c0.4-0.1,0.8,0.1,0.9,0.4c0.1,0.4-0.1,0.8-0.4,0.9c0,0,0,0-0.1,0c-1.8,0.5-3.6,1.1-5.4,1.6C245.8,412.1,245.8,412.1,245.7,412.1&#10;&#9;&#9;L245.7,412.1z M77.1,410.3c-0.2,0-0.3-0.1-0.4-0.1c-1.5-1.1-3-2.4-4.4-3.6c-0.2-0.3-0.1-0.8,0.2-1c0.2-0.2,0.5-0.2,0.8,0&#10;&#9;&#9;c1.3,1.2,2.8,2.4,4.3,3.5c0.3,0.2,0.4,0.7,0.2,1c0,0,0,0,0,0C77.5,410.3,77.3,410.4,77.1,410.3L77.1,410.3z M256.4,409&#10;&#9;&#9;c-0.4,0-0.7-0.3-0.7-0.7c0-0.3,0.2-0.6,0.5-0.7c1.8-0.6,3.6-1.1,5.3-1.7c0.4-0.1,0.8,0,0.9,0.4c0.1,0.4,0,0.8-0.4,0.9&#10;&#9;&#9;c0,0,0,0-0.1,0c-1.8,0.6-3.5,1.1-5.3,1.7L256.4,409L256.4,409z M267.1,405.5c-0.3,0-0.6-0.2-0.7-0.5c-0.1-0.4,0.1-0.8,0.4-0.9&#10;&#9;&#9;c0,0,0,0,0,0c1.8-0.6,3.5-1.2,5.3-1.8c0.4-0.1,0.8,0.1,0.9,0.5c0.1,0.3-0.1,0.7-0.4,0.8l-5.3,1.8&#10;&#9;&#9;C267.2,405.5,267.2,405.5,267.1,405.5L267.1,405.5z M68.8,402.8c-0.2,0-0.4-0.1-0.5-0.2c-1.3-1.4-2.4-2.9-3.5-4.4&#10;&#9;&#9;c-0.2-0.3-0.2-0.8,0.2-1s0.8-0.2,1,0.2c1.1,1.5,2.2,2.9,3.4,4.3c0.3,0.3,0.2,0.7-0.1,1C69.1,402.8,69,402.8,68.8,402.8L68.8,402.8z&#10;&#9;&#9; M277.6,401.8c-0.4,0-0.7-0.3-0.7-0.7c0-0.3,0.2-0.6,0.5-0.7c1.8-0.7,3.5-1.3,5.2-1.9c0.4-0.1,0.8,0.1,0.9,0.4&#10;&#9;&#9;c0.1,0.3-0.1,0.7-0.4,0.9l-5.3,2C277.8,401.8,277.7,401.8,277.6,401.8L277.6,401.8z M288.1,397.8c-0.4,0-0.7-0.3-0.7-0.7&#10;&#9;&#9;c0-0.3,0.2-0.5,0.4-0.6c1.8-0.7,3.5-1.4,5.2-2.1c0.4-0.1,0.8,0,0.9,0.4c0.1,0.4,0,0.8-0.4,0.9c-1.7,0.7-3.4,1.4-5.2,2.1&#10;&#9;&#9;C288.3,397.8,288.2,397.8,288.1,397.8L288.1,397.8z M62.4,393.7c-0.3,0-0.5-0.1-0.6-0.4c-0.9-1.7-1.7-3.4-2.5-5.1&#10;&#9;&#9;c-0.1-0.4,0-0.8,0.4-0.9c0.4-0.1,0.8,0,0.9,0.4c0,0,0,0,0,0c0.7,1.7,1.5,3.4,2.4,5c0.2,0.3,0.1,0.8-0.3,1&#10;&#9;&#9;C62.6,393.7,62.5,393.8,62.4,393.7L62.4,393.7z M298.5,393.6c-0.3,0-0.5-0.2-0.6-0.4c-0.2-0.4,0-0.8,0.4-0.9c0,0,0,0,0,0&#10;&#9;&#9;c1.8-0.7,3.5-1.5,5.1-2.2c0.4-0.2,0.8,0,0.9,0.4c0.2,0.4,0,0.8-0.4,0.9c-1.7,0.7-3.4,1.5-5.2,2.2&#10;&#9;&#9;C298.7,393.6,298.6,393.6,298.5,393.6L298.5,393.6z M308.8,389.2c-0.4,0-0.7-0.3-0.7-0.7c0-0.3,0.2-0.5,0.4-0.6&#10;&#9;&#9;c1.7-0.8,3.4-1.5,5.1-2.3c0.4-0.2,0.8,0,0.9,0.3s0,0.8-0.3,0.9c-1.7,0.8-3.4,1.5-5.1,2.3C309,389.2,308.9,389.2,308.8,389.2z&#10;&#9;&#9; M318.9,384.5c-0.3,0-0.5-0.2-0.6-0.4c-0.2-0.3,0-0.8,0.3-0.9c0,0,0,0,0,0c1.7-0.8,3.4-1.6,5-2.4c0.3-0.2,0.8,0,0.9,0.3&#10;&#9;&#9;c0.2,0.3,0,0.8-0.3,0.9c0,0,0,0,0,0c-1.6,0.8-3.3,1.6-5,2.4C319.1,384.5,319,384.5,318.9,384.5L318.9,384.5z M58.1,383.4&#10;&#9;&#9;c-0.3,0-0.6-0.2-0.7-0.5c-0.5-1.8-0.9-3.7-1.2-5.5c-0.1-0.4,0.2-0.8,0.5-0.8c0.4-0.1,0.8,0.2,0.8,0.5c0,0,0,0.1,0,0.1&#10;&#9;&#9;c0.3,1.8,0.7,3.6,1.2,5.4c0.1,0.4-0.1,0.8-0.5,0.9C58.2,383.4,58.2,383.4,58.1,383.4L58.1,383.4z M329,379.6&#10;&#9;&#9;c-0.4,0-0.7-0.3-0.7-0.7c0-0.3,0.1-0.5,0.4-0.6c1.7-0.9,3.4-1.7,5-2.5c0.4-0.1,0.8,0,0.9,0.4c0.1,0.3,0,0.7-0.3,0.9&#10;&#9;&#9;c-1.6,0.8-3.3,1.7-5,2.5C329.2,379.6,329.1,379.6,329,379.6L329,379.6z M338.9,374.4c-0.3,0-0.5-0.1-0.6-0.4c-0.2-0.3,0-0.8,0.3-1&#10;&#9;&#9;c1.7-0.9,3.4-1.8,4.9-2.7c0.3-0.2,0.8,0,0.9,0.3c0.1,0.3,0,0.7-0.3,0.9c-1.5,0.9-3.2,1.8-4.9,2.7&#10;&#9;&#9;C339.2,374.4,339.1,374.4,338.9,374.4L338.9,374.4z M56.3,372.4c-0.4,0-0.7-0.3-0.7-0.7c-0.1-1.1-0.1-2.2-0.1-3.3&#10;&#9;&#9;c0-0.8,0-1.6,0-2.3c0-0.4,0.3-0.7,0.7-0.7c0,0,0,0,0,0c0.4,0,0.7,0.3,0.7,0.7c0,0,0,0,0,0c0,0.8,0,1.5,0,2.3c0,1.1,0,2.2,0.1,3.2&#10;&#9;&#9;C57,372,56.7,372.4,56.3,372.4C56.3,372.4,56.3,372.4,56.3,372.4L56.3,372.4L56.3,372.4z M348.8,369c-0.3,0-0.5-0.1-0.6-0.4&#10;&#9;&#9;c-0.2-0.3-0.1-0.8,0.2-0.9c0,0,0,0,0,0c1.8-1,3.4-2,4.8-2.8c0.3-0.2,0.8-0.1,1,0.2s0.1,0.8-0.2,1c0,0,0,0,0,0&#10;&#9;&#9;c-1.4,0.8-3,1.8-4.9,2.8C349,369,348.9,369,348.8,369L348.8,369z M56.8,361.2L56.8,361.2c-0.5-0.1-0.7-0.4-0.7-0.8c0,0,0,0,0,0&#10;&#9;&#9;c0.2-1.8,0.6-3.7,1-5.6c0.1-0.4,0.5-0.6,0.8-0.5c0.4,0.1,0.6,0.5,0.5,0.8c-0.4,1.8-0.7,3.6-1,5.4C57.4,360.9,57.1,361.2,56.8,361.2&#10;&#9;&#9;L56.8,361.2z M59.2,350.3c-0.1,0-0.1,0-0.2,0c-0.4-0.1-0.6-0.5-0.5-0.9c0.5-1.8,1.2-3.6,1.9-5.3c0.1-0.4,0.6-0.5,0.9-0.4&#10;&#9;&#9;c0.4,0.1,0.5,0.6,0.4,0.9c-0.7,1.7-1.3,3.5-1.9,5.2C59.8,350.1,59.5,350.3,59.2,350.3L59.2,350.3z M63.3,340&#10;&#9;&#9;c-0.4,0-0.7-0.3-0.7-0.7c0-0.1,0-0.2,0.1-0.3c0.8-1.7,1.7-3.3,2.7-5c0.2-0.3,0.6-0.4,1-0.2c0.3,0.2,0.4,0.6,0.3,1&#10;&#9;&#9;c-0.9,1.6-1.8,3.2-2.6,4.9C63.9,339.8,63.6,340,63.3,340z M69,330.3c-0.1,0-0.3,0-0.4-0.1c-0.3-0.2-0.4-0.6-0.2-0.9c0,0,0,0,0-0.1&#10;&#9;&#9;c1.1-1.5,2.2-3.1,3.4-4.5c0.2-0.3,0.7-0.3,1-0.1c0,0,0,0,0,0c0.3,0.2,0.4,0.7,0.1,1c0,0,0,0,0,0c-1.2,1.4-2.3,2.9-3.3,4.4&#10;&#9;&#9;C69.5,330.2,69.3,330.3,69,330.3L69,330.3z M76,321.7c-0.2,0-0.4-0.1-0.5-0.2c-0.3-0.3-0.3-0.7,0-1c1.3-1.4,2.7-2.7,4-4&#10;&#9;&#9;c0.2-0.3,0.7-0.4,1-0.2c0.3,0.2,0.4,0.7,0.2,1c-0.1,0.1-0.1,0.1-0.2,0.2c-1.4,1.2-2.7,2.5-4,3.9c-0.1,0.1-0.3,0.2-0.5,0.2L76,321.7&#10;&#9;&#9;z"/>
	<path class="st0_email-campaign-84" d="M84.4,314.1c-0.4,0-0.7-0.3-0.7-0.7c0-0.2,0.1-0.4,0.3-0.5c0.8-0.6,1.5-1.1,2.3-1.7c0.3-0.2,0.8-0.2,1,0.2&#10;&#9;&#9;c0,0,0,0,0,0c0.2,0.3,0.2,0.7-0.1,1c0,0,0,0,0,0c-0.8,0.5-1.5,1.1-2.2,1.6C84.8,314.1,84.6,314.2,84.4,314.1L84.4,314.1z"/>
	<path class="st0_email-campaign-84" d="M398.4,230.5c-0.2,0-0.4-0.1-0.5-0.2c-0.3-0.3-0.3-0.7,0-1c0,0,0,0,0,0c0,0,0.7-0.7,1.9-2&#10;&#9;&#9;c0.3-0.2,0.8-0.1,1,0.2c0.2,0.2,0.2,0.5,0,0.8c-1.2,1.3-1.9,2.1-1.9,2.1C398.8,230.4,398.6,230.5,398.4,230.5L398.4,230.5z"/>
	<path class="st0_email-campaign-84" d="M404,224.1c-0.2,0-0.3-0.1-0.5-0.2c-0.3-0.2-0.3-0.7-0.1-1c0,0,0,0,0,0c1.1-1.3,2.3-2.8,3.6-4.4&#10;&#9;&#9;c0.3-0.3,0.7-0.3,1,0c0.2,0.2,0.3,0.6,0.1,0.9c-1.3,1.6-2.5,3.1-3.6,4.4C404.4,224,404.2,224.1,404,224.1L404,224.1z M411.1,215.3&#10;&#9;&#9;c-0.2,0-0.3,0-0.4-0.1c-0.3-0.2-0.4-0.7-0.2-1c0,0,0,0,0,0c1.1-1.4,2.2-3,3.3-4.5c0.2-0.3,0.7-0.4,1-0.2s0.4,0.7,0.2,1l0,0&#10;&#9;&#9;c-1.1,1.6-2.3,3.1-3.4,4.6C411.5,215.2,411.3,215.3,411.1,215.3L411.1,215.3z M417.6,206.1c-0.1,0-0.3,0-0.4-0.1&#10;&#9;&#9;c-0.3-0.2-0.4-0.6-0.2-1c0,0,0,0,0,0c1-1.5,2.1-3.1,3.1-4.7c0.2-0.3,0.6-0.4,0.9-0.3c0,0,0,0,0.1,0c0.3,0.2,0.4,0.6,0.2,1&#10;&#9;&#9;c0,0,0,0,0,0c-1,1.6-2,3.1-3.1,4.8C418.1,206,417.9,206.1,417.6,206.1L417.6,206.1z M423.6,196.6c-0.1,0-0.2,0-0.4-0.1&#10;&#9;&#9;c-0.3-0.2-0.5-0.6-0.3-1c0,0,0,0,0,0c1-1.7,1.9-3.3,2.7-4.9c0.2-0.3,0.6-0.4,1-0.2c0.3,0.2,0.4,0.5,0.3,0.9c-0.9,1.6-1.8,3.3-2.7,5&#10;&#9;&#9;C424.1,196.4,423.9,196.5,423.6,196.6L423.6,196.6z M428.9,186.6c-0.1,0-0.2,0-0.3-0.1c-0.3-0.2-0.5-0.6-0.3-0.9c0,0,0,0,0,0&#10;&#9;&#9;c0.8-1.7,1.5-3.5,2.2-5.2c0.1-0.4,0.5-0.5,0.9-0.4c0.4,0.1,0.5,0.5,0.4,0.9l0,0c-0.7,1.7-1.4,3.5-2.2,5.2&#10;&#9;&#9;C429.4,186.4,429.1,186.6,428.9,186.6L428.9,186.6z M432.9,176c-0.1,0-0.1,0-0.2,0c-0.4-0.1-0.6-0.5-0.5-0.9c0,0,0,0,0,0&#10;&#9;&#9;c0.6-1.8,1-3.6,1.4-5.4c0.1-0.4,0.5-0.6,0.8-0.5c0.4,0.1,0.6,0.5,0.5,0.8c0,0,0,0,0,0c-0.4,1.8-0.9,3.6-1.4,5.5&#10;&#9;&#9;C433.5,175.8,433.2,176,432.9,176L432.9,176z M435.2,165L435.2,165c-0.5,0-0.7-0.4-0.7-0.8c0.1-0.6,0.1-1.2,0.1-1.7&#10;&#9;&#9;c0.1-1.3,0.1-2.6,0.2-3.9c0-0.4,0.3-0.7,0.7-0.7c0.4,0,0.7,0.3,0.7,0.7c0,0,0,0,0,0c0,1.3-0.1,2.6-0.2,3.9c0,0.6-0.1,1.2-0.1,1.8&#10;&#9;&#9;C435.9,164.7,435.6,165,435.2,165L435.2,165z M435.5,153.7c-0.4,0-0.7-0.3-0.7-0.7c0-1.9-0.1-3.8-0.3-5.6c-0.1-0.4,0.2-0.7,0.6-0.8&#10;&#9;&#9;c0.4-0.1,0.7,0.2,0.8,0.6c0,0,0,0.1,0,0.1c0.1,1.8,0.2,3.7,0.3,5.7C436.2,153.4,435.9,153.7,435.5,153.7L435.5,153.7L435.5,153.7z&#10;&#9;&#9; M434.6,142.5c-0.3,0-0.6-0.3-0.7-0.6c-0.3-1.9-0.6-3.7-1-5.5c-0.1-0.4,0.2-0.8,0.5-0.8s0.8,0.2,0.8,0.5c0.4,1.8,0.8,3.7,1,5.6&#10;&#9;&#9;c0.1,0.4-0.2,0.7-0.6,0.8C434.7,142.5,434.7,142.5,434.6,142.5L434.6,142.5L434.6,142.5z M432.1,131.5c-0.3,0-0.6-0.2-0.7-0.5&#10;&#9;&#9;c-0.6-1.8-1.2-3.5-2-5.2c-0.2-0.4,0-0.8,0.4-0.9s0.8,0,0.9,0.3l0,0c0.8,1.7,1.5,3.5,2.1,5.3c0.1,0.4-0.1,0.8-0.5,0.9&#10;&#9;&#9;C432.2,131.4,432.2,131.4,432.1,131.5L432.1,131.5z M427.4,121.2c-0.2,0-0.5-0.1-0.6-0.3c-1-1.6-2-3.1-3.2-4.5&#10;&#9;&#9;c-0.2-0.3-0.2-0.7,0.1-1c0.3-0.2,0.7-0.2,1,0.1c1.2,1.5,2.3,3,3.3,4.7c0.2,0.3,0.1,0.8-0.2,1c0,0,0,0,0,0&#10;&#9;&#9;C427.7,121.2,427.5,121.3,427.4,121.2L427.4,121.2z M420.2,112.6c-0.2,0-0.3-0.1-0.5-0.2c-1.4-1.2-2.8-2.3-4.4-3.3&#10;&#9;&#9;c-0.3-0.2-0.4-0.6-0.2-1c0,0,0,0,0,0c0.2-0.3,0.6-0.4,1-0.2c0,0,0,0,0,0c1.6,1,3.1,2.2,4.6,3.5c0.3,0.3,0.3,0.7,0.1,1&#10;&#9;&#9;C420.6,112.5,420.4,112.6,420.2,112.6L420.2,112.6z M410.8,106.5c-0.1,0-0.2,0-0.3-0.1c-1.7-0.8-3.4-1.4-5.2-2&#10;&#9;&#9;c-0.4-0.1-0.6-0.5-0.4-0.9c0.1-0.3,0.5-0.5,0.8-0.4c1.8,0.5,3.6,1.2,5.4,2c0.4,0.2,0.5,0.6,0.4,0.9&#10;&#9;&#9;C411.3,106.3,411.1,106.4,410.8,106.5L410.8,106.5z M400,103.2h-0.1c-1.8-0.3-3.7-0.5-5.5-0.6c-0.4,0-0.7-0.4-0.7-0.7c0,0,0,0,0,0&#10;&#9;&#9;c0-0.4,0.3-0.7,0.7-0.7c0,0,0,0,0,0c1.9,0.1,3.8,0.3,5.7,0.7c0.4,0.1,0.6,0.4,0.6,0.8C400.6,103,400.3,103.2,400,103.2L400,103.2z"/>
	<path class="st0_email-campaign-84" d="M385.9,102.8c-0.4,0-0.7-0.3-0.7-0.7c0-0.3,0.2-0.6,0.6-0.7c0,0,1.1-0.2,2.9-0.3c0.4,0,0.7,0.3,0.7,0.7&#10;&#9;&#9;c0,0.4-0.3,0.7-0.7,0.7l0,0c-1.7,0.1-2.7,0.3-2.7,0.3L385.9,102.8L385.9,102.8z"/>
</g>
<g id="Envelopes_email-campaign-84">
	<path class="st2_email-campaign-84" d="M37.5,159.9l43.8-35.8c1.1-0.9,2.7-0.7,3.6,0.4l19,23.2c0.9,1.1,0.7,2.7-0.4,3.6l-43.8,35.8&#10;&#9;&#9;c-1.1,0.9-2.7,0.7-3.6-0.4l-19-23.2C36.3,162.4,36.4,160.8,37.5,159.9z"/>
	<path class="st0_email-campaign-84" d="M58.3,188c-0.1,0-0.3,0-0.4,0c-1.1-0.1-2.2-0.7-2.9-1.6l-17.7-21.7c-1.5-1.8-1.2-4.5,0.6-6c0,0,0,0,0,0&#10;&#9;&#9;l42.2-34.5c1.8-1.5,4.5-1.2,6,0.6c0,0,0,0,0,0l17.7,21.7c1.5,1.8,1.2,4.5-0.6,6c0,0,0,0,0,0l0,0L61,187&#10;&#9;&#9;C60.3,187.6,59.3,188,58.3,188L58.3,188z M82.8,124.7c-0.7,0-1.3,0.2-1.8,0.6l-42.2,34.5c-0.6,0.5-0.9,1.2-1,1.9&#10;&#9;&#9;c-0.1,0.8,0.1,1.5,0.6,2.1l17.7,21.7c0.5,0.6,1.2,0.9,1.9,1c0.8,0.1,1.5-0.2,2.1-0.6l42.2-34.5c1.2-1,1.4-2.8,0.4-4c0,0,0,0,0,0&#10;&#9;&#9;L85,125.7C84.5,125.1,83.6,124.7,82.8,124.7L82.8,124.7z M102.8,152L102.8,152z"/>
	<path class="st0_email-campaign-84" d="M37.1,162.1c-0.4,0-0.7-0.3-0.7-0.7c0-0.4,0.3-0.7,0.7-0.7l35.2-3l10-33.9c0.1-0.4,0.5-0.6,0.8-0.5&#10;&#9;&#9;s0.6,0.5,0.5,0.8c0,0,0,0,0,0.1l-10.1,34.3c-0.1,0.3-0.3,0.5-0.6,0.5L37.1,162.1L37.1,162.1z"/>
	<path class="st0_email-campaign-84" d="M74.2,154c-0.4,0-0.7-0.3-0.7-0.6c0-0.4,0.2-0.7,0.6-0.8l29.8-3.4c0.4,0,0.7,0.2,0.8,0.6&#10;&#9;&#9;c0,0.4-0.2,0.7-0.6,0.8L74.2,154L74.2,154z"/>
	<path class="st0_email-campaign-84" d="M58.2,188H58c-0.4-0.1-0.6-0.5-0.5-0.9l9.3-28.5c0.1-0.4,0.5-0.6,0.9-0.5c0.4,0.1,0.6,0.5,0.5,0.9&#10;&#9;&#9;c0,0,0,0.1,0,0.1l-9.3,28.5C58.8,187.8,58.5,188,58.2,188L58.2,188z"/>
	<path class="st2_email-campaign-84" d="M408,281.6l9.6-22.1c0.4-1,1.6-1.5,2.7-1.1l41.7,18.1c1,0.4,1.5,1.6,1.1,2.7l-9.6,22.1c-0.4,1-1.6,1.5-2.7,1.1&#10;&#9;&#9;l-41.7-18.1C408,283.8,407.5,282.6,408,281.6z"/>
	<path class="st0_email-campaign-84" d="M451.2,302.9c-0.5,0-1-0.1-1.4-0.3l-40.2-17.4c-1.8-0.8-2.6-2.9-1.9-4.7l9-20.7c0.8-1.8,2.9-2.6,4.7-1.9&#10;&#9;&#9;l40.2,17.4c1.8,0.8,2.6,2.9,1.8,4.7l-9,20.7c-0.4,0.9-1.1,1.6-2,1.9C452,302.9,451.6,302.9,451.2,302.9L451.2,302.9z M419.9,259.1&#10;&#9;&#9;c-0.9,0-1.7,0.5-2,1.3l-8.9,20.7c-0.2,0.5-0.2,1.1,0,1.6c0.2,0.5,0.6,1,1.1,1.2l40.2,17.4l0,0c0.5,0.2,1.1,0.2,1.6,0&#10;&#9;&#9;c0.5-0.2,1-0.6,1.2-1.1l9-20.7c0.2-0.5,0.2-1.1,0-1.6c-0.2-0.5-0.6-1-1.1-1.2l-40.2-17.4C420.5,259.2,420.2,259.1,419.9,259.1&#10;&#9;&#9;L419.9,259.1z"/>
	<path class="st0_email-campaign-84" d="M434.4,283.6c-0.2,0-0.5-0.1-0.6-0.3l-15.4-24.3c-0.2-0.3-0.1-0.8,0.2-1s0.8-0.1,1,0.2l0,0l15.1,23.9l27.8-5.3&#10;&#9;&#9;c0.4-0.1,0.7,0.2,0.8,0.6s-0.2,0.7-0.6,0.8l-28.3,5.4L434.4,283.6z"/>
	<path class="st0_email-campaign-84" d="M452,302.8c-0.2,0-0.5-0.1-0.6-0.3l-13.4-20c-0.2-0.3-0.2-0.7,0.1-1c0.3-0.2,0.7-0.2,1,0.1c0,0,0,0,0,0.1&#10;&#9;&#9;l13.4,20c0.2,0.3,0.1,0.8-0.2,1C452.3,302.8,452.1,302.8,452,302.8L452,302.8z"/>
	<path class="st0_email-campaign-84" d="M408.4,283.9c-0.4,0-0.7-0.3-0.7-0.7c0-0.3,0.2-0.6,0.6-0.7l23.8-3.9c0.4-0.1,0.7,0.2,0.8,0.6c0,0,0,0,0,0&#10;&#9;&#9;c0.1,0.4-0.2,0.7-0.6,0.8l-23.8,3.9L408.4,283.9L408.4,283.9z"/>
	<path class="st2_email-campaign-84" d="M141.8,112l5.5-16.8c0.3-0.8,1.1-1.2,1.9-1l31.6,10.3c0.8,0.3,1.2,1.1,1,1.9l-5.5,16.8c-0.3,0.8-1.1,1.2-1.9,1&#10;&#9;&#9;l-31.6-10.3C141.9,113.6,141.5,112.7,141.8,112z"/>
	<path class="st0_email-campaign-84" d="M175,125.5c-0.3,0-0.6,0-0.9-0.1l0,0l-30.4-10.1c-0.7-0.2-1.3-0.7-1.6-1.4c-0.3-0.7-0.4-1.4-0.1-2.1l5.2-15.6&#10;&#9;&#9;c0.5-1.5,2.1-2.3,3.5-1.8l30.4,10.1c0.7,0.2,1.3,0.7,1.6,1.4c0.3,0.7,0.4,1.4,0.1,2.1l-5.2,15.6C177.3,124.7,176.2,125.5,175,125.5&#10;&#9;&#9;L175,125.5z M174.6,124c0.7,0.2,1.5-0.2,1.8-0.9l5.2-15.6c0.2-0.7-0.2-1.5-0.9-1.8l-30.4-10.1c-0.7-0.2-1.5,0.2-1.8,0.9l-5.2,15.6&#10;&#9;&#9;c-0.2,0.7,0.2,1.5,0.9,1.8L174.6,124z"/>
	<path class="st0_email-campaign-84" d="M161.7,112.5c-0.2,0-0.4-0.1-0.6-0.3l-12.8-16.7c-0.2-0.3-0.2-0.7,0.1-1c0,0,0,0,0,0c0.3-0.2,0.7-0.2,1,0.1&#10;&#9;&#9;c0,0,0,0,0,0L162,111l19.8-5.7c0.4-0.1,0.8,0.1,0.9,0.5c0.1,0.4-0.1,0.8-0.5,0.9l-20.2,5.8C161.9,112.5,161.8,112.5,161.7,112.5&#10;&#9;&#9;L161.7,112.5z"/>
	<path class="st0_email-campaign-84" d="M175.8,125.3c-0.2,0-0.4-0.1-0.6-0.3l-11.1-13.7c-0.2-0.3-0.2-0.7,0.1-1c0,0,0,0,0,0c0.3-0.2,0.7-0.2,1,0.1&#10;&#9;&#9;c0,0,0,0,0,0l11.1,13.7c0.2,0.3,0.2,0.7-0.1,1c0,0,0,0,0,0C176.1,125.3,175.9,125.3,175.8,125.3L175.8,125.3z"/>
	<path class="st0_email-campaign-84" d="M142.8,114.4c-0.3,0-0.6-0.2-0.7-0.5c-0.1-0.4,0.1-0.8,0.5-0.8l17.1-4.4c0.4-0.1,0.8,0.2,0.8,0.5&#10;&#9;&#9;s-0.2,0.8-0.5,0.8l0,0l-17,4.4C142.9,114.4,142.9,114.4,142.8,114.4L142.8,114.4z"/>
</g>
</svg>